<?xml version="1.0" standalone="no"?>
<!DOCTYPE svg PUBLIC "-//W3C//DTD SVG 20010904//EN"
 "http://www.w3.org/TR/2001/REC-SVG-20010904/DTD/svg10.dtd">
<svg version="1.0" xmlns="http://www.w3.org/2000/svg"
 width="216.000000pt" height="233.000000pt" viewBox="0 0 216.000000 233.000000"
 preserveAspectRatio="xMidYMid meet">
<metadata>
Created by potrace 1.16, written by Peter Selinger 2001-2019
</metadata>
<g transform="translate(0.000000,233.000000) scale(0.100000,-0.100000)"
fill="blue" stroke="none">
<path d="M929 1946 c-252 -53 -455 -236 -536 -481 -23 -68 -26 -98 -27 -205
-1 -143 14 -212 69 -325 69 -140 185 -252 330 -321 104 -50 184 -67 305 -67
187 -1 335 57 484 187 l40 34 -31 26 c-37 31 -57 84 -48 126 5 25 1 37 -24 65
-40 46 -49 95 -26 145 17 38 17 40 -5 84 -16 34 -20 54 -15 78 10 46 39 83 75
98 22 9 29 17 24 29 -38 95 -6 172 87 203 l40 13 -54 65 c-91 110 -227 199
-362 235 -84 22 -245 28 -326 11z m364 -104 c83 -32 166 -85 216 -136 l34 -35
-36 -40 c-39 -43 -60 -103 -55 -157 2 -25 -4 -40 -24 -61 -54 -56 -73 -151
-44 -218 9 -21 10 -38 3 -58 -16 -47 -4 -131 26 -176 17 -25 27 -54 27 -76 0
-20 9 -54 20 -76 l21 -40 -23 -20 c-37 -31 -178 -98 -243 -114 -75 -19 -212
-19 -293 0 -280 66 -482 319 -485 605 -1 116 13 180 65 288 46 98 144 208 232
261 168 101 383 121 559 53z"/>
<path d="M1105 1705 c-38 -37 -35 -95 7 -130 26 -22 39 -26 67 -21 42 6 81 46
81 82 0 32 -25 80 -45 88 -37 14 -86 6 -110 -19z"/>
<path d="M739 1631 c-20 -20 -29 -39 -29 -61 0 -44 47 -90 93 -90 51 0 87 38
87 90 0 85 -90 121 -151 61z"/>
<path d="M1017 1309 c-11 -6 -25 -26 -33 -45 -38 -90 68 -164 143 -100 60 52
20 156 -60 156 -18 0 -40 -5 -50 -11z"/>
<path d="M565 1284 c-35 -38 -34 -87 4 -125 20 -20 39 -29 61 -29 45 0 90 47
90 95 0 79 -101 117 -155 59z"/>
<path d="M709 951 c-60 -60 -22 -150 64 -151 83 0 120 100 56 154 -41 35 -83
34 -120 -3z"/>
<path d="M1195 924 c-35 -38 -34 -87 4 -125 20 -20 39 -29 61 -29 45 0 90 47
90 95 0 79 -101 117 -155 59z"/>
<path d="M1606 1349 c-20 -16 -26 -29 -26 -58 0 -74 83 -109 135 -56 73 72
-28 178 -109 114z"/>
<path d="M1680 330 l0 -40 130 0 130 0 0 40 0 40 -130 0 -130 0 0 -40z"/>
<path d="M0 85 l0 -85 1080 0 1080 0 0 85 0 85 -1080 0 -1080 0 0 -85z"/>
</g>
</svg>
