<?xml version="1.0" standalone="no"?>
<!DOCTYPE svg PUBLIC "-//W3C//DTD SVG 20010904//EN"
 "http://www.w3.org/TR/2001/REC-SVG-20010904/DTD/svg10.dtd">
<svg version="1.0" xmlns="http://www.w3.org/2000/svg"
 width="9120.000000pt" height="9120.000000pt" viewBox="0 0 5120.000000 5120.000000"
 preserveAspectRatio="xMidYMid meet">
<metadata>
Created by potrace 1.16, written by Peter Selinger 2001-2019
</metadata>
<g transform="translate(0.000000,5120.000000) scale(0.100000,-0.100000)"
fill="blue" stroke="none">
<path d="M19043 44785 c-210 -38 -398 -139 -541 -289 -120 -127 -194 -258
-249 -444 -16 -52 -18 -153 -23 -1126 l-5 -1068 -77 -28 c-43 -15 -102 -43
-131 -62 -108 -72 -206 -198 -240 -310 -9 -29 -161 -528 -337 -1108 -177 -580
-377 -1237 -445 -1460 -137 -449 -652 -2138 -977 -3205 -115 -379 -239 -784
-274 -900 -40 -129 -68 -237 -71 -280 -5 -59 -12 -79 -48 -135 -136 -209 -220
-455 -245 -709 -14 -138 -13 -25702 0 -25844 34 -354 176 -671 416 -925 231
-246 524 -406 859 -468 97 -18 355 -19 8945 -19 8590 0 8848 1 8945 19 422 78
785 317 1021 671 148 222 228 451 254 722 13 142 14 25706 0 25844 -25 254
-109 500 -245 709 -35 55 -43 77 -48 130 -3 36 -393 1618 -866 3515 -754 3022
-866 3459 -898 3525 -71 141 -222 263 -379 305 -38 11 -122 18 -236 22 l-177
6 -3 1061 c-3 970 -5 1066 -21 1118 -55 186 -129 317 -249 444 -121 127 -289
226 -468 275 l-85 24 -6515 2 c-5327 1 -6528 -1 -6587 -12z m12727 -2050 l0
-865 -6170 0 -6170 0 0 865 0 865 6170 0 6170 0 0 -865z m1362 -3547 c202
-810 515 -2066 696 -2790 l329 -1318 -8537 0 -8537 0 164 538 c376 1233 855
2803 1154 3787 367 1205 381 1248 384 1255 2 3 3148 4 6992 3 l6988 -2 367
-1473z m1313 -5357 c65 -37 120 -98 154 -170 l26 -56 0 -12865 0 -12865 -29
-62 c-33 -73 -112 -152 -183 -186 l-48 -22 -8765 0 -8765 0 -48 22 c-71 34
-150 113 -183 186 l-29 62 0 12865 0 12865 26 56 c34 72 89 133 154 170 l50
29 8795 0 8795 0 50 -29z"/>
<path d="M18320 22465 l0 -2265 425 0 425 0 0 1772 c0 974 2 1769 4 1767 2 -2
180 -704 395 -1559 215 -855 415 -1649 444 -1765 l53 -210 442 -3 c243 -1 442
-1 442 0 0 12 891 3533 895 3536 3 3 5 -792 5 -1766 l0 -1772 425 0 425 0 -2
2263 -3 2262 -679 3 c-374 1 -683 -1 -687 -5 -7 -7 -169 -620 -690 -2606 -68
-257 -126 -462 -130 -455 -4 7 -183 677 -399 1488 -215 811 -398 1499 -406
1528 l-15 52 -685 0 -684 0 0 -2265z"/>
<path d="M23580 22465 l0 -2265 455 0 455 0 0 2265 0 2265 -455 0 -455 0 0
-2265z"/>
<path d="M29240 22465 l0 -2265 460 0 460 0 0 686 0 686 367 374 c283 288 370
371 379 361 6 -6 137 -228 291 -492 459 -786 760 -1300 855 -1462 l90 -153
590 0 590 0 -19 33 c-11 17 -240 370 -508 782 -268 413 -663 1019 -877 1348
l-390 599 79 81 c1073 1112 1510 1565 1562 1620 l64 67 -614 0 -614 0 -920
-1002 -920 -1002 -5 999 -5 1000 -457 3 -458 2 0 -2265z"/>
<path d="M25390 22445 l0 -2245 1595 0 1595 0 0 380 0 380 -1140 0 -1140 0 0
1865 0 1865 -455 0 -455 0 0 -2245z"/>
</g>
</svg>
