<?xml version="1.0" standalone="no"?>
<!DOCTYPE svg PUBLIC "-//W3C//DTD SVG 20010904//EN"
 "http://www.w3.org/TR/2001/REC-SVG-20010904/DTD/svg10.dtd">
<svg version="1.0" xmlns="http://www.w3.org/2000/svg"
 width="181.000000pt" height="279.000000pt" viewBox="0 0 181.000000 279.000000"
 preserveAspectRatio="xMidYMid meet">
<metadata>
Created by potrace 1.16, written by Peter Selinger 2001-2019
</metadata>
<g transform="translate(0.000000,279.000000) scale(0.100000,-0.100000)"
fill="blue" stroke="none">
<path d="M630 2309 c-1 -319 -45 -562 -173 -949 l-72 -215 1 -135 c0 -147 5
-172 78 -425 24 -82 49 -172 55 -200 27 -114 43 -128 190 -159 61 -13 39 -14
-321 -15 l-388 -1 0 -105 0 -105 905 0 905 0 0 105 0 105 -412 1 c-227 1 -402
3 -388 5 14 2 58 9 99 15 130 19 168 35 190 77 27 55 56 174 96 397 31 168 36
218 33 310 -3 101 -6 117 -41 200 -21 50 -56 138 -77 196 -21 58 -63 166 -93
240 -81 198 -90 249 -89 527 1 224 1 233 -17 227 -56 -17 -142 -22 -281 -15
-85 5 -165 11 -177 15 -23 7 -23 7 -23 -96z m503 -813 c49 -20 86 -74 178
-260 94 -188 94 -185 48 -427 -49 -262 -77 -318 -168 -338 -65 -14 -469 -23
-513 -11 -101 28 -147 130 -200 444 l-22 135 21 73 c26 87 153 358 178 378 36
30 411 34 478 6z"/>
<path d="M880 1232 c0 -7 -11 -11 -27 -10 -57 4 -113 -2 -113 -12 0 -5 10 -10
22 -10 17 0 12 -6 -23 -29 -153 -97 -171 -281 -38 -394 109 -94 321 -102 445
-16 107 73 128 249 43 357 -27 35 -97 82 -121 82 -10 0 -18 5 -18 11 0 7 12 8
33 4 30 -6 31 -5 13 10 -25 19 -50 19 -112 0 -62 -19 -65 -19 -57 3 6 15 5 15
-11 3 -15 -13 -19 -13 -27 0 -6 10 -9 10 -9 1z"/>
</g>
</svg>
