<?xml version="1.0" standalone="no"?>
<!DOCTYPE svg PUBLIC "-//W3C//DTD SVG 20010904//EN"
 "http://www.w3.org/TR/2001/REC-SVG-20010904/DTD/svg10.dtd">
<svg version="1.0" xmlns="http://www.w3.org/2000/svg"
 width="1300.000000pt" height="1300.000000pt" viewBox="0 0 1300.000000 1300.000000"
 preserveAspectRatio="xMidYMid meet">
<metadata>
Created by potrace 1.16, written by Peter Selinger 2001-2019
</metadata>
<g transform="translate(0.000000,1300.000000) scale(0.100000,-0.100000)"
fill="blue" stroke="none">
<path d="M6394 10367 c-156 -186 -261 -383 -314 -591 -39 -152 -43 -154 200
89 l220 220 -93 95 -92 95 95 -93 95 -92 64 64 63 64 -46 63 c-25 35 -65 85
-88 111 l-43 48 -61 -73z"/>
<path d="M6547 10122 l-88 -88 54 -106 c75 -146 101 -244 101 -383 0 -101 -3
-119 -37 -220 -37 -107 -104 -240 -122 -240 -13 0 -99 176 -126 258 -21 63
-24 90 -23 217 0 138 2 149 32 229 17 46 50 118 73 160 l41 76 -201 -201 -201
-200 0 -71 c0 -255 139 -582 349 -821 l55 -62 38 37 c103 100 265 371 317 530
46 139 64 337 40 454 -6 30 -12 65 -15 79 -13 73 -52 178 -106 282 -91 180
-77 175 -181 70z"/>
<path d="M7383 9365 c-119 -46 -118 -34 -12 -144 l94 -96 -95 93 c-53 50 -101
92 -108 92 -32 0 -258 -132 -326 -190 -134 -113 -213 -208 -273 -326 -86 -168
-116 -311 -116 -544 1 -147 21 -341 40 -374 7 -13 19 -11 88 13 84 29 259 114
329 159 266 170 419 377 483 652 23 100 26 138 27 290 1 204 -25 400 -53 400
-9 -1 -44 -12 -78 -25z m-116 -442 c-14 -260 -91 -426 -267 -571 -68 -55 -185
-132 -202 -132 -22 0 4 246 37 360 47 156 183 312 373 426 31 19 58 34 60 34
3 0 2 -53 -1 -117z"/>
<path d="M2860 8993 c-24 -49 -49 -108 -57 -133 -87 -278 -108 -440 -82 -613
39 -262 170 -484 408 -694 82 -72 196 -158 225 -169 15 -6 81 132 124 257 160
461 80 848 -245 1181 -101 104 -294 258 -323 258 -4 0 -27 -39 -50 -87z m345
-533 c78 -127 98 -190 103 -332 4 -119 -6 -207 -35 -308 l-16 -55 -64 70 c-89
97 -155 199 -194 297 -28 72 -33 98 -37 200 -4 117 5 206 34 308 l16 55 69
-73 c38 -41 93 -114 124 -162z"/>
<path d="M10030 9043 c-124 -81 -275 -223 -370 -348 -239 -316 -277 -668 -120
-1094 38 -103 85 -207 98 -215 12 -7 147 87 232 161 133 117 266 284 325 409
37 79 73 193 86 275 14 93 7 288 -16 394 -37 177 -144 457 -173 454 -4 0 -32
-16 -62 -36z m-16 -428 c39 -153 42 -308 10 -424 -34 -120 -141 -289 -247
-389 l-35 -34 -22 94 c-28 118 -37 276 -20 360 22 112 81 231 168 338 71 87
115 131 123 122 4 -4 14 -34 23 -67z"/>
<path d="M5525 9028 c-52 -230 -54 -453 -5 -675 55 -252 223 -477 472 -634
120 -75 407 -203 423 -187 11 10 36 204 42 318 11 233 -24 420 -112 595 -81
162 -200 292 -375 412 -103 70 -375 193 -426 193 -8 0 -16 -10 -19 -22z m287
-365 c83 -52 205 -159 254 -224 58 -75 91 -145 115 -241 19 -81 39 -318 25
-318 -23 0 -194 128 -261 195 -95 95 -139 166 -170 274 -37 127 -59 351 -34
351 6 0 38 -17 71 -37z"/>
<path d="M4081 8290 c-146 -99 -302 -251 -393 -385 -71 -103 -98 -158 -139
-280 -32 -98 -33 -104 -33 -275 -1 -96 3 -193 7 -214 l8 -39 110 109 109 109
0 55 c1 175 98 377 258 533 l49 48 17 -71 c37 -154 38 -368 3 -466 -23 -62
-66 -144 -105 -199 -36 -50 -149 -177 -163 -183 -8 -3 -43 141 -54 222 l-7 49
-108 -108 c-122 -121 -114 -94 -71 -250 25 -88 118 -305 132 -305 33 0 249
170 340 266 129 138 234 316 281 479 20 70 23 101 23 255 -1 180 -5 211 -52
370 -35 118 -123 330 -136 330 -1 0 -35 -22 -76 -50z"/>
<path d="M8836 8324 c-3 -9 -3 -21 1 -26 3 -6 2 -8 -4 -5 -5 3 -17 -11 -25
-31 -63 -148 -78 -184 -96 -242 -44 -136 -57 -228 -56 -390 1 -126 5 -170 22
-235 58 -215 216 -444 423 -617 74 -62 183 -138 197 -138 27 0 123 240 162
405 l20 80 -115 115 -115 115 0 -55 c0 -55 -33 -228 -48 -256 -6 -11 -19 -3
-60 38 -108 109 -195 253 -227 373 -28 109 -15 338 26 463 l11 34 30 -29 c56
-53 176 -220 208 -289 36 -79 60 -170 60 -229 0 -38 7 -47 114 -154 129 -129
119 -130 131 19 13 162 -33 385 -108 520 -91 164 -250 344 -407 459 -82 60
-108 73 -94 49 4 -8 3 -10 -2 -5 -5 5 -9 12 -9 15 0 12 -16 32 -25 32 -4 0
-11 -7 -14 -16z"/>
<path d="M7340 8071 c-319 -129 -551 -316 -671 -541 -89 -166 -122 -320 -122
-560 0 -136 22 -344 38 -371 19 -30 291 88 452 197 160 109 264 216 346 359
47 81 101 228 111 300 3 22 10 72 15 110 19 131 10 306 -25 508 -9 48 -22 48
-144 -2z m-73 -423 c-6 -123 -35 -253 -74 -336 -38 -80 -130 -190 -214 -253
-77 -59 -170 -119 -184 -119 -13 0 3 203 24 299 43 198 154 341 370 480 35 22
69 41 74 41 6 0 8 -41 4 -112z"/>
<path d="M5527 7766 c-3 -7 -13 -62 -22 -121 l-17 -108 118 -118 c65 -66 121
-119 124 -119 3 0 3 29 2 65 -2 36 -1 65 2 65 4 0 50 -29 104 -64 202 -132
307 -273 347 -468 l16 -73 130 -130 131 -130 -5 130 c-10 212 -35 321 -110
474 -120 246 -396 468 -723 581 -102 35 -91 33 -97 16z"/>
<path d="M5486 7460 c-15 -128 23 -386 75 -518 80 -201 226 -368 442 -505 67
-43 205 -114 258 -132 l36 -13 75 76 c72 73 76 80 82 132 l6 56 -128 127 -127
127 3 -106 4 -105 -44 27 c-159 100 -253 183 -320 285 -45 68 -85 183 -100
289 l-12 79 -122 122 -121 121 -7 -62z"/>
<path d="M2373 7427 c9 -107 41 -280 69 -367 38 -120 123 -286 192 -373 186
-238 517 -392 889 -414 l98 -6 -6 64 c-23 231 -75 430 -152 582 l-35 70 -90
-90 -90 -90 35 -94 c19 -52 37 -108 40 -126 l6 -32 -72 20 c-40 11 -94 31
-122 43 l-50 24 -95 -92 -95 -91 88 91 c96 99 96 95 19 133 -78 39 -173 141
-231 246 -52 93 -111 241 -111 279 0 16 5 17 37 11 65 -12 125 -35 230 -87
121 -61 223 -154 280 -256 l36 -64 90 90 91 91 -38 57 c-142 214 -408 373
-727 435 -57 11 -146 23 -198 26 l-94 6 6 -86z"/>
<path d="M10416 7494 c-243 -38 -462 -128 -625 -259 -60 -47 -191 -194 -191
-213 0 -4 40 -47 89 -96 l88 -88 31 54 c75 130 254 254 451 312 89 26 92 25
75 -37 -54 -206 -178 -392 -322 -480 l-52 -33 90 -89 89 -88 42 28 c62 40 178
160 228 234 53 78 119 218 154 326 31 95 67 304 67 386 l0 59 -62 -1 c-35 -1
-103 -7 -152 -15z"/>
<path d="M4440 7079 c-117 -71 -305 -247 -404 -379 -56 -75 -147 -257 -171
-345 -23 -82 -31 -332 -15 -433 17 -106 43 -203 85 -313 39 -102 83 -197 95
-204 17 -11 203 137 315 249 233 234 335 462 335 747 0 128 -21 257 -66 407
-35 114 -110 284 -129 289 -5 2 -26 -7 -45 -18z m-30 -471 c30 -129 33 -304 8
-388 -41 -133 -143 -296 -250 -398 l-35 -33 -17 65 c-29 116 -40 259 -27 359
14 104 40 173 104 276 44 71 171 221 186 221 4 0 18 -46 31 -102z"/>
<path d="M8466 7008 c-102 -221 -155 -470 -142 -668 17 -275 153 -532 393
-747 102 -91 250 -200 258 -191 10 11 50 100 85 188 106 267 134 529 78 755
-25 103 -101 262 -168 351 -98 130 -275 297 -395 373 -27 17 -53 31 -58 31 -4
0 -27 -42 -51 -92z m339 -510 c94 -144 122 -253 111 -433 -6 -103 -12 -144
-37 -238 -10 -38 -11 -39 -31 -20 -36 32 -144 167 -176 218 -17 28 -45 86 -63
130 -29 71 -33 93 -37 206 -4 105 -1 143 18 230 12 57 25 108 28 113 8 14 136
-126 187 -206z"/>
<path d="M9578 6988 c-26 -39 -84 -169 -111 -249 -34 -99 -66 -260 -74 -376
l-6 -93 60 0 c81 0 289 36 388 67 81 26 245 99 278 124 16 13 10 21 -71 102
l-87 87 -83 -35 c-45 -19 -107 -41 -137 -49 -55 -14 -55 -14 -55 9 0 25 53
181 77 229 l15 29 -89 89 -90 90 -15 -24z"/>
<path d="M7410 6821 c-260 -83 -560 -288 -678 -464 l-25 -38 84 -85 c46 -46
86 -84 90 -84 3 0 25 26 47 59 55 78 137 151 247 223 l90 58 3 -63 c7 -144
-39 -335 -109 -451 l-41 -68 83 -84 83 -84 23 22 c12 12 43 57 67 100 106 186
141 334 140 588 0 164 -22 361 -42 382 -4 3 -32 -2 -62 -11z"/>
<path d="M5525 6478 c-19 -86 -25 -128 -35 -243 -30 -350 63 -662 259 -869 57
-60 151 -138 231 -193 106 -72 417 -210 434 -192 11 11 37 196 42 309 12 236
-22 426 -108 599 -123 249 -361 445 -697 575 -109 42 -119 43 -126 14z m311
-387 c49 -33 103 -71 119 -84 l30 -26 90 87 90 87 -87 -90 -87 -90 50 -55 c61
-68 122 -191 144 -290 16 -72 33 -300 23 -300 -8 0 -106 60 -148 90 -107 76
-215 199 -255 290 -10 25 -20 47 -22 49 -2 3 -45 -35 -96 -85 l-92 -89 92 95
c93 95 93 95 83 130 -30 99 -51 340 -31 340 5 0 49 -27 97 -59z"/>
<path d="M6671 6259 c-84 -147 -124 -327 -124 -559 0 -151 23 -364 42 -383 9
-9 173 49 266 95 146 73 318 197 395 284 l32 37 -85 85 -86 86 -68 -65 c-59
-56 -231 -179 -249 -179 -12 0 5 208 25 297 11 49 28 109 39 134 l20 46 -88
88 -88 88 -31 -54z"/>
<path d="M2705 6187 c8 -173 77 -429 151 -566 145 -265 341 -422 644 -514 136
-41 194 -53 315 -67 151 -17 139 -24 131 73 -10 122 -51 313 -90 419 -104 288
-245 456 -496 590 -62 33 -264 108 -292 108 -7 0 165 -179 382 -397 l395 -398
-405 403 -405 402 -80 16 c-44 8 -119 17 -167 20 l-88 4 5 -93z m396 -226
c130 -44 177 -68 260 -127 80 -58 154 -146 202 -240 24 -48 97 -246 97 -265 0
-20 -159 30 -270 86 -127 64 -225 159 -303 295 -26 46 -97 240 -97 266 0 20
15 18 111 -15z"/>
<path d="M10100 6264 c-47 -7 -92 -13 -100 -14 -8 0 -208 -192 -445 -427
l-430 -428 420 423 c231 233 413 421 405 418 -145 -45 -227 -75 -284 -103
-214 -107 -370 -267 -473 -483 -68 -143 -128 -391 -134 -550 l-2 -65 74 3
c212 7 466 81 646 188 212 127 359 318 445 578 33 100 63 239 73 331 3 33 8
79 11 103 l5 42 -63 -1 c-35 -1 -101 -7 -148 -15z m-85 -286 c-62 -202 -96
-277 -168 -374 -49 -67 -151 -148 -243 -194 -68 -33 -251 -96 -259 -88 -8 7
52 181 89 260 43 90 127 193 202 249 114 84 394 192 379 147z"/>
<path d="M4699 5794 c-189 -141 -350 -324 -437 -500 -17 -34 -43 -103 -59
-155 -26 -87 -28 -107 -28 -264 0 -127 5 -192 18 -255 25 -116 80 -277 128
-372 l40 -79 30 18 c105 62 295 227 355 308 16 22 31 42 34 45 56 55 153 228
189 337 30 90 36 141 35 313 0 199 -20 296 -105 511 -42 107 -70 161 -86 166
-6 2 -57 -31 -114 -73z m34 -381 c52 -229 41 -408 -32 -551 -12 -23 -21 -45
-20 -49 3 -19 -2 -33 -11 -31 -6 2 -18 -10 -28 -26 -18 -31 -45 -65 -77 -100
-11 -11 -20 -25 -20 -31 -1 -5 -6 -9 -12 -8 -6 1 -21 -9 -33 -22 -13 -14 -27
-25 -31 -25 -13 0 -50 180 -56 270 -10 156 39 322 134 454 43 61 154 186 164
186 4 0 14 -30 22 -67z"/>
<path d="M8157 5823 c-14 -26 -41 -90 -61 -141 -133 -346 -139 -659 -17 -918
56 -118 163 -270 182 -259 4 3 11 0 15 -6 4 -8 3 -9 -4 -5 -56 34 91 -118 198
-206 66 -54 169 -122 175 -116 14 14 97 206 119 275 65 208 88 460 56 607 -52
232 -141 389 -329 576 -100 99 -249 218 -296 236 -9 4 -22 -10 -38 -43z m268
-488 c116 -148 165 -279 165 -439 0 -117 -12 -205 -36 -283 l-18 -56 -62 66
c-34 36 -65 62 -69 59 -4 -4 -5 -2 -3 3 5 17 -43 86 -55 78 -7 -3 -9 -3 -5 2
4 4 -11 43 -33 86 -48 95 -69 184 -69 304 0 92 21 251 40 301 l11 27 35 -34
c20 -19 64 -70 99 -114z"/>
<path d="M7380 5534 c-225 -76 -468 -237 -607 -403 -173 -205 -254 -511 -223
-840 15 -171 31 -245 51 -249 9 -2 59 13 110 33 173 68 290 134 419 237 195
154 309 337 361 578 18 86 23 136 23 280 0 183 -20 351 -46 376 -11 11 -27 8
-88 -12z m-110 -401 c-1 -90 -18 -196 -49 -300 -26 -88 -100 -202 -177 -272
-58 -53 -228 -171 -246 -171 -14 0 -4 182 16 277 44 206 144 343 354 484 48
32 90 59 95 59 4 0 7 -35 7 -77z"/>
<path d="M5526 5208 c-53 -251 -54 -496 -2 -701 78 -307 291 -544 637 -710 99
-47 246 -103 254 -95 2 2 12 49 22 103 24 139 24 427 0 548 -77 382 -333 657
-772 830 -133 52 -134 52 -139 25z m309 -390 c111 -72 240 -205 287 -294 50
-94 78 -212 85 -358 l6 -120 -39 24 c-21 13 -56 34 -77 47 -118 73 -259 232
-301 338 -47 120 -86 415 -55 415 8 0 51 -23 94 -52z"/>
<path d="M3034 4966 c22 -265 93 -495 209 -673 183 -282 516 -452 957 -489 65
-6 80 -4 80 7 -1 50 -23 216 -41 302 -77 374 -268 638 -564 782 -176 85 -357
133 -569 150 l-79 7 7 -86z m416 -243 c108 -35 231 -106 305 -174 63 -60 132
-163 175 -264 26 -61 62 -187 55 -194 -19 -18 -296 97 -372 155 -58 44 -134
128 -168 186 -57 96 -125 268 -125 315 0 16 20 12 130 -24z"/>
<path d="M9860 5043 c-96 -10 -274 -46 -345 -70 -314 -104 -510 -268 -640
-538 -34 -71 -72 -164 -83 -205 -29 -102 -62 -299 -62 -372 l0 -61 83 8 c444
38 773 211 959 505 32 50 89 171 116 245 42 117 82 329 82 440 l0 55 -37 -2
c-21 0 -54 -3 -73 -5z m-176 -310 c-17 -70 -68 -195 -116 -281 -87 -157 -222
-260 -434 -331 -130 -44 -126 -46 -99 49 45 159 144 328 236 402 87 70 209
132 334 169 83 24 87 24 79 -8z"/>
<path d="M5092 4605 c-28 -20 -51 -41 -49 -47 1 -7 -5 -12 -15 -13 -9 0 -30
-12 -47 -27 -17 -16 -34 -28 -38 -28 -13 0 -193 -186 -193 -198 0 -7 -4 -12
-9 -12 -27 0 -139 -186 -190 -316 -53 -137 -67 -344 -36 -530 20 -115 78 -296
135 -420 l39 -85 68 47 c284 200 480 448 553 704 31 107 38 321 16 450 -24
137 -71 290 -127 408 -26 56 -49 102 -51 102 -2 0 -27 -16 -56 -35z m-21 -457
c17 -71 22 -123 22 -223 1 -145 -12 -198 -80 -328 -35 -65 -186 -257 -210
-264 -7 -3 -20 31 -34 89 -32 133 -33 325 -2 423 22 70 94 204 140 260 42 51
125 135 133 135 5 0 18 -42 31 -92z"/>
<path d="M7822 4577 c-51 -103 -70 -153 -102 -262 -101 -347 -70 -649 92 -899
71 -111 139 -189 264 -306 55 -51 217 -170 232 -170 27 0 139 292 173 452 31
146 31 358 1 478 -30 114 -116 288 -190 380 -73 93 -97 114 -114 104 -11 -6
-11 -5 0 8 11 14 8 19 -20 39 -18 13 -40 23 -48 21 -13 -3 -13 -2 0 7 13 9 10
15 -15 36 -16 13 -36 22 -43 20 -7 -3 -11 -1 -8 4 9 14 -93 99 -160 134 l-32
16 -30 -62z m218 -409 c81 -94 161 -220 192 -305 30 -81 32 -321 4 -433 -10
-41 -22 -81 -25 -88 -16 -29 -173 160 -234 283 -49 96 -67 174 -68 291 0 92
14 235 27 255 3 5 0 17 -6 28 -7 14 -7 22 2 27 7 4 8 3 4 -4 -4 -7 -3 -12 3
-12 5 0 13 9 16 20 3 11 8 20 10 20 2 0 35 -37 75 -82z"/>
<path d="M3363 3733 c7 -90 30 -228 49 -296 l12 -38 173 173 c95 95 173 175
173 179 0 13 -196 50 -344 64 l-69 7 6 -89z"/>
<path d="M9550 3813 c-74 -7 -233 -35 -266 -46 l-34 -12 169 -169 169 -169 16
71 c23 100 36 197 36 270 0 69 7 65 -90 55z"/>
<path d="M3606 3571 l-179 -179 12 -49 c17 -67 78 -195 140 -290 56 -88 174
-207 261 -264 178 -118 435 -200 670 -215 l103 -7 -8 89 c-15 189 -77 421
-153 569 -93 184 -263 350 -453 442 -49 24 -200 83 -212 83 -1 0 -83 -81 -181
-179z m116 -61 c62 -17 205 -78 252 -107 115 -72 204 -175 262 -302 36 -78 90
-239 82 -246 -8 -8 -212 66 -277 100 -177 93 -291 236 -362 458 -33 100 -36
122 -15 114 8 -3 34 -11 58 -17z"/>
<path d="M9120 3716 c-109 -42 -173 -75 -263 -135 -258 -175 -420 -506 -461
-945 l-7 -69 98 6 c255 16 520 105 703 235 163 116 297 305 366 515 l28 87
-169 170 c-110 110 -177 170 -190 170 -11 -1 -58 -16 -105 -34z m226 -233
c-47 -174 -117 -306 -216 -404 -84 -83 -176 -137 -310 -184 -145 -50 -145 -50
-111 55 80 246 195 392 379 484 46 23 245 95 264 96 3 0 1 -21 -6 -47z"/>
</g>
</svg>
